<?xml version="1.0" encoding="utf-8"?>
<!-- Generator: Adobe Illustrator 26.5.0, SVG Export Plug-In . SVG Version: 6.00 Build 0)  -->
<svg version="1.1" id="Layer_1" xmlns="http://www.w3.org/2000/svg" xmlns:xlink="http://www.w3.org/1999/xlink" x="0px" y="0px"
	 viewBox="0 0 595.28 841.89" style="enable-background:new 0 0 595.28 841.89;" xml:space="preserve">
<style type="text/css">
	.st0{fill:#FF9800;}
</style>
<g>
	<path class="st0" d="M236.48,316.47c-13.16,0.01-26.31,0.03-39.47,0c-16.64-0.03-31.11-12.8-32.95-29
		c-1.96-17.35,8.56-33.14,24.92-37.18c2.22-0.55,4.61-0.62,6.92-0.62c26.81-0.04,53.63-0.06,80.44-0.02
		c17.89,0.02,32.34,14.77,32.45,32.98c0.11,18.38-14.51,33.72-32.34,33.83C263.12,316.53,249.8,316.47,236.48,316.47z
		 M235.91,298.64c0,0.02,0,0.04,0,0.05c13.16,0,26.32,0.1,39.48-0.03c8.74-0.09,15.47-7,15.56-15.62
		c0.1-8.76-6.82-15.85-15.79-15.87c-25.82-0.06-51.64-0.05-77.46,0.01c-9.2,0.02-15.92,6.68-16,15.6
		c-0.08,8.92,6.55,15.74,15.73,15.84C210.26,298.74,223.08,298.64,235.91,298.64z"/>
	<path class="st0" d="M391.73,249.43c5.65,0,11.42-1.59,15.39,0.4c5.05,2.53,8.73,0.21,12.96-0.33c14.49-1.83,27.75,4.5,34.67,16.76
		c6.78,12,5.51,27.27-3.16,37.98c-8.91,11.01-23.42,15.11-37.46,10.6c-1.23-0.4-2.49-0.71-4.33-1.23c0,10.34,0,20.26,0,30.48
		c-6.23,0-11.95,0-18.07,0C391.73,312.6,391.73,281.38,391.73,249.43z M409.8,282.85c-0.02,9.27,6.33,15.86,15.35,15.93
		c9.07,0.07,16.11-6.97,16.04-16.04c-0.07-8.82-7.03-15.68-15.9-15.68C416.26,267.06,409.82,273.62,409.8,282.85z"/>
	<path class="st0" d="M382.99,282.95c-0.02,18.76-14.8,33.61-33.52,33.68c-18.95,0.07-34.09-14.94-34.04-33.75
		c0.05-18.64,14.97-33.62,33.61-33.73C367.94,249.04,383.01,264.04,382.99,282.95z M365.15,282.77c-0.06-8.84-7.01-15.69-15.91-15.7
		c-8.83-0.01-15.84,6.93-15.9,15.74c-0.06,8.99,7.13,16.08,16.2,15.96C358.35,298.65,365.21,291.62,365.15,282.77z"/>
	<path class="st0" d="M136.2,316.81c0-31.6,0-62.86,0-94.82c5.4,0,10.69-0.19,15.94,0.19c0.86,0.06,2.19,2.56,2.21,3.95
		c0.19,10.65,0.1,21.31,0.1,31.96c0,17.65,0,35.3,0,52.94c0,1.8,0,3.59,0,5.77C148.21,316.81,142.49,316.81,136.2,316.81z"/>
</g>
</svg>
