<?xml version="1.0" encoding="utf-8"?>
<!-- Generator: Adobe Illustrator 26.5.0, SVG Export Plug-In . SVG Version: 6.00 Build 0)  -->
<svg version="1.1" id="Layer_1" xmlns="http://www.w3.org/2000/svg" xmlns:xlink="http://www.w3.org/1999/xlink" x="0px" y="0px"
	 viewBox="0 0 595.28 841.89" style="enable-background:new 0 0 595.28 841.89;" xml:space="preserve">
<path d="M291.12,136.41c30.26,0.57,60.45,6.22,86.74,24.6c8.3,5.8,15.82,13.33,22.04,21.35c12.43,16.03,23,33.34,30.97,52.14
	c16.31,38.47,11.86,74.49-13.33,107.57c-23.79,31.24-53.83,54.52-91.08,67.89c-51.33,18.42-100.53,2.93-132.08-41.5
	c-19.57-27.56-35.49-56.94-43.96-89.9c-4.9-19.06-6.61-38.31-2.13-57.72c6.31-27.31,23.86-45.72,47.31-59.44
	C224.73,144.37,256.35,136.79,291.12,136.41z M332.57,168.21c-11.78-1.09-17.29-1.05-22.18-0.73c-1.31,0.09-7.07,0.49-14.63,1.9
	c-4.21,0.78-10.55,1.99-17.87,4.62c-2.6,0.93-12.22,4.52-23.11,12.22c-2.67,1.89-12.54,9.06-22.48,21.71
	c-16.71,21.26-21.59,42.68-22.53,47.03c-2.48,11.52-6.14,28.84,0.98,48.28c2.94,8.03,7.49,15.69,13.85,22.87
	c25.16,28.38,57.45,41.73,95.2,41.34c28.4-0.29,47.33-15.95,54.44-21.18c7.06-5.2,24.68-18.38,35.42-42.93
	c7.33-16.75,8.11-31.09,8.44-38.67c0.42-9.48,2.57-57.45-28-80c-10.33-7.62-23-11.31-26.22-12.22
	C357.14,170.53,348.95,169.73,332.57,168.21z"/>
</svg>
